<svg xmlns="http://www.w3.org/2000/svg" width="1171" height="286" viewBox="0 0 1171 286" fill="none"><g clip-path="url(#clip0_1_75)"><mask id="mask0_1_75" style="mask-type:luminance" maskUnits="userSpaceOnUse" x="-180" y="-623" width="1440" height="1440"><path d="M-180 -623H1260V817H-180V-623Z" fill="white"></path></mask><g mask="url(#mask0_1_75)"><path d="M111.766 0.875698V56.5437C94.0904 57.5504 76.3944 57.6117 58.7077 57.033C59.2877 75.425 59.2144 93.829 58.2104 112.213L0.298401 112.214L0.301066 0.875698H111.766Z" fill="#F48534"></path></g><mask id="mask1_1_75" style="mask-type:luminance" maskUnits="userSpaceOnUse" x="-180" y="-623" width="1440" height="1440"><path d="M-180 -623H1260V817H-180V-623Z" fill="white"></path></mask><g mask="url(#mask1_1_75)"><path d="M111.766 56.544C149.494 56.5173 187.245 56.564 224.973 56.544V223.549H112.202C111.19 212.428 111.148 201.279 111.734 190.141C93.8984 190.715 76.033 190.765 58.2104 189.625C58.2237 163.829 58.1944 138.009 58.2104 112.212C58.2237 93.6626 58.2037 75.0906 58.209 56.5413C76.0544 56.536 93.921 56.556 111.766 56.544Z" fill="#57A594"></path></g><mask id="mask2_1_75" style="mask-type:luminance" maskUnits="userSpaceOnUse" x="-180" y="-623" width="1440" height="1440"><path d="M-180 -623H1260V817H-180V-623Z" fill="white"></path></mask><g mask="url(#mask2_1_75)"><path d="M58.2109 189.626C76.2016 189.606 94.2136 189.643 112.204 189.623C112.208 200.925 112.191 212.247 112.202 223.549C112.222 244.271 112.187 265.018 112.202 285.741H15.9763V189.626C30.0469 189.614 44.1403 189.642 58.2109 189.626Z" fill="#0097D9"></path></g><mask id="mask3_1_75" style="mask-type:luminance" maskUnits="userSpaceOnUse" x="-180" y="-623" width="1440" height="1440"><path d="M-180 -623H1260V817H-180V-623Z" fill="white"></path></mask><g mask="url(#mask3_1_75)"><path d="M929.468 129.609C920.624 152.591 909.429 174.794 900.681 197.838C897.813 198.146 894.966 198.558 892.065 198.279L868.513 133.957L855.665 197.889H843.909C843.773 197.889 843.202 197.318 843.428 196.995L860.202 116.711C860.168 113.373 858.514 111.023 856.318 108.737L872.804 107.926L897.898 177.011C903.14 165.778 908.078 154.191 912.69 142.642C915.673 135.173 919.534 126.629 921.638 118.961C922.478 115.895 923.376 113.69 922.292 110.465C921.902 109.309 920.886 108.598 920.76 107.429H938.176L954.722 197.453L943.18 198.774L942.172 198.027C938.633 175.303 933.81 152.771 930.338 130.043C929.96 129.319 929.669 129.174 929.468 129.609Z" fill="#FFFFFF"></path></g><mask id="mask4_1_75" style="mask-type:luminance" maskUnits="userSpaceOnUse" x="-180" y="-623" width="1440" height="1440"><path d="M-180 -623H1260V817H-180V-623Z" fill="white"></path></mask><g mask="url(#mask4_1_75)"><path d="M731.356 107.863L730.466 119.806C730.906 137.152 727.9 159.32 732.976 176.048C738.628 194.679 765.956 198.096 777.936 183.31C785.561 173.899 784.53 150.764 784.458 138.976C784.393 128.551 784.273 118.256 783.605 107.863H795.361C794.364 122.072 795.36 136.447 794.944 150.719C794.22 175.527 791.272 196.419 761.202 198.344C733.1 200.144 720.853 185.046 719.581 158.548C718.782 141.888 720.216 124.586 719.6 107.863H731.356Z" fill="#FFFFFF"></path></g><mask id="mask5_1_75" style="mask-type:luminance" maskUnits="userSpaceOnUse" x="-180" y="-623" width="1440" height="1440"><path d="M-180 -623H1260V817H-180V-623Z" fill="white"></path></mask><g mask="url(#mask5_1_75)"><path d="M1073.59 117.874C1073.76 118.508 1073.42 118.596 1073.16 118.963C1072.55 119.851 1067.43 125.455 1066.83 125.691C1066.13 125.97 1064.82 122.438 1063.96 122.044C1050.76 111.344 1026.93 116.475 1018.81 131.214C1012.16 143.27 1013.25 165.656 1018.79 178.039C1028.12 198.891 1056.34 194.712 1073.15 186.147L1072.7 196.566C1053.81 200.987 1032.95 205.322 1016.15 192.85C994.681 176.91 995.51 142.272 1011.77 122.88C1027.41 104.23 1054.44 105.57 1073.59 117.874Z" fill="#FFFFFF"></path></g><mask id="mask6_1_75" style="mask-type:luminance" maskUnits="userSpaceOnUse" x="-180" y="-623" width="1440" height="1440"><path d="M-180 -623H1260V817H-180V-623Z" fill="white"></path></mask><g mask="url(#mask6_1_75)"><path d="M334.261 193.323C333.885 195.103 329.495 195.615 327.812 196.015C310.552 200.116 292.22 201.86 277.26 190.676C254.349 173.547 257.093 134.249 277.652 116.337C293.468 102.557 318.761 104.711 335.124 116.344L327.945 123.952C325.72 118.963 320.501 116.356 315.38 115.197C301.028 111.951 284.281 118.488 278.632 132.539C273.104 146.287 274.529 174.763 286.573 184.852C299.521 195.699 320.345 190.903 334.261 184.407C333.889 186.999 334.767 190.927 334.261 193.323Z" fill="#FFFFFF"></path></g><mask id="mask7_1_75" style="mask-type:luminance" maskUnits="userSpaceOnUse" x="-180" y="-623" width="1440" height="1440"><path d="M-180 -623H1260V817H-180V-623Z" fill="white"></path></mask><g mask="url(#mask7_1_75)"><path d="M362.128 107.428L361.254 190.063L397.832 190.935C394.05 194.369 388.864 196.557 383.91 197.684C382.893 197.915 379.15 198.759 378.456 198.759H349.936V107.428H362.128Z" fill="#FFFFFF"></path></g><mask id="mask8_1_75" style="mask-type:luminance" maskUnits="userSpaceOnUse" x="-180" y="-623" width="1440" height="1440"><path d="M-180 -623H1260V817H-180V-623Z" fill="white"></path></mask><g mask="url(#mask8_1_75)"><path d="M971.267 199.629L970.394 109.166C974.347 109.424 978.208 108.438 982.155 108.73L982.587 199.629H971.267Z" fill="#FFFFFF"></path></g><mask id="mask9_1_75" style="mask-type:luminance" maskUnits="userSpaceOnUse" x="-180" y="-623" width="1440" height="1440"><path d="M-180 -623H1260V817H-180V-623Z" fill="white"></path></mask><g mask="url(#mask9_1_75)"><path d="M584.622 198.759L583.75 109.384L584.465 108.359L595.51 107.86L595.944 198.759H584.622Z" fill="#FFFFFF"></path></g><mask id="mask10_1_75" style="mask-type:luminance" maskUnits="userSpaceOnUse" x="-180" y="-623" width="1440" height="1440"><path d="M-180 -623H1260V817H-180V-623Z" fill="white"></path></mask><g mask="url(#mask10_1_75)"><path d="M817.132 198.759L816.26 109.384L816.974 108.359L828.02 107.86L828.453 198.759H817.132Z" fill="#FFFFFF"></path></g><mask id="mask11_1_75" style="mask-type:luminance" maskUnits="userSpaceOnUse" x="-180" y="-623" width="1440" height="1440"><path d="M-180 -623H1260V817H-180V-623Z" fill="white"></path></mask><g mask="url(#mask11_1_75)"><path d="M837.126 84.8426L841.514 93.5053L814.523 103.079L813.722 95.3199L837.126 84.8426Z" fill="#FFFFFF"></path></g><mask id="mask12_1_75" style="mask-type:luminance" maskUnits="userSpaceOnUse" x="-180" y="-623" width="1440" height="1440"><path d="M-180 -623H1260V817H-180V-623Z" fill="white"></path></mask><g mask="url(#mask12_1_75)"><path d="M929.468 129.609C929.544 129.413 929.402 129.009 929.469 128.741C930.792 128.514 930.197 129.118 930.338 130.043L929.468 129.609Z" fill="#DDDDDD"></path></g><mask id="mask13_1_75" style="mask-type:luminance" maskUnits="userSpaceOnUse" x="-180" y="-623" width="1440" height="1440"><path d="M-180 -623H1260V817H-180V-623Z" fill="white"></path></mask><g mask="url(#mask13_1_75)"><path d="M530.731 153.411C528.739 153.761 520.326 154.692 519.269 153.353L517.594 117.453C523.425 116.292 528.911 116.307 534.646 117.988C555.471 124.089 550.914 149.864 530.731 153.411ZM542.834 159.397C561.794 152.345 568.209 122.571 548.871 112.043C537.794 106.011 523.353 108.251 511.251 108.728C507.259 108.885 503.261 108.687 499.285 109.172C499.945 110.163 501.487 110.687 502.345 111.545C504.197 113.397 505.129 115.956 505.37 118.525C506.171 127.056 505.722 138.753 505.834 147.636C506.049 164.671 505.633 181.729 505.811 198.761C509.698 197.888 514.563 198.887 518.223 198.325C519.807 198.083 518.87 197.113 518.854 195.959C518.723 186.08 518.767 176.209 518.458 166.34C518.427 165.331 517.359 162.629 518.658 162.227C520.11 161.776 527.739 162.227 529.978 162.227L557.719 198.663C563.217 198.997 568.697 198.671 574.173 198.32C561.995 186.848 552.641 172.881 542.834 159.397Z" fill="#FFFFFF"></path></g><mask id="mask14_1_75" style="mask-type:luminance" maskUnits="userSpaceOnUse" x="-180" y="-623" width="1440" height="1440"><path d="M-180 -623H1260V817H-180V-623Z" fill="white"></path></mask><g mask="url(#mask14_1_75)"><path d="M622.944 157.22C621.487 138.44 633.043 116.253 653.328 114.08C691.36 110.006 705.207 164.048 677.139 185.704C653.527 203.921 625.032 184.114 622.944 157.22ZM668.224 197.46C701.077 189.993 715.731 150.566 693.463 124.185C671.232 97.8489 626.819 104.442 614.02 136.574C601.492 168.028 626.519 199.338 659.099 198.956C674.488 208.377 686.616 220.942 705.904 221.39C706.491 221.404 708.52 221.266 708.711 220.51L668.224 197.46Z" fill="#FFFFFF"></path></g><mask id="mask15_1_75" style="mask-type:luminance" maskUnits="userSpaceOnUse" x="-180" y="-623" width="1440" height="1440"><path d="M-180 -623H1260V817H-180V-623Z" fill="white"></path></mask><g mask="url(#mask15_1_75)"><path d="M436.149 160.485C436.062 160.004 436.206 159.614 436.348 159.166C438.688 151.75 445.125 139.388 448.698 131.926C448.889 131.525 449.792 128.873 450.512 129.608L462.706 160.05L436.149 160.485ZM488.022 189.348C475.486 164.357 466.861 135.637 454.948 110.178L453.782 108.298H440.937C441.669 109.206 442.768 109.66 443.545 110.694C445.698 113.558 444.976 116.188 443.881 119.284L406.54 199.19C411.444 199.05 416.425 199.61 421.258 198.674L431.401 170.969L467.08 171.125L477.504 198.985C483.633 199.674 489.837 198.304 496.024 198.76L497.101 198.33C492.445 196.941 490.07 193.43 488.022 189.348Z" fill="#FFFFFF"></path></g><mask id="mask16_1_75" style="mask-type:luminance" maskUnits="userSpaceOnUse" x="-180" y="-623" width="1440" height="1440"><path d="M-180 -623H1260V817H-180V-623Z" fill="white"></path></mask><g mask="url(#mask16_1_75)"><path d="M1109.73 158.745L1123.88 127.871L1136.72 158.308L1109.73 158.745ZM1166.56 194.4C1164.62 192.664 1162.98 190.963 1162.04 188.477L1128.02 106.993H1114.95C1115.69 107.952 1117.06 108.491 1117.77 109.62C1118.95 111.521 1118.76 113.272 1118.31 115.355C1106.45 143.008 1092.64 169.892 1080.56 197.455H1094.92L1105.36 169.384L1140.35 169.256L1151.07 197.255L1170.25 197.015L1166.56 194.4Z" fill="#FFFFFF"></path></g></g><defs><clipPath id="clip0_1_75"><rect width="1171" height="286" fill="white"></rect></clipPath></defs></svg>